<?xml version="1.0" standalone="no"?>
<!DOCTYPE svg PUBLIC "-//W3C//DTD SVG 1.1//EN" "http://www.w3.org/Graphics/SVG/1.1/DTD/svg11.dtd" >
<svg xmlns="http://www.w3.org/2000/svg">
<metadata>Generated by IcoMoon</metadata>
<defs>
<font id="equinix" horiz-adv-x="1024">
<font-face units-per-em="1024" ascent="960" descent="-64" />
<missing-glyph horiz-adv-x="1024" />
<glyph unicode="&#x20;" horiz-adv-x="512" d="" />
<glyph unicode="&#xe900;" glyph-name="alarm" horiz-adv-x="1237" d="M314.644 406.688l-101.822 16.498c22.581 139.2 113.268 255.819 242.517 312.014l41.141-94.553c-95.481-41.502-165.184-131.157-181.836-233.959v0zM919.442 406.688c-16.652 102.802-86.356 192.457-181.836 233.959l41.141 94.553c129.25-56.196 219.936-172.814 242.517-312.014l-101.822-16.498zM1237.333 355.236h-103.111c0 229.628-154.203 433.685-374.964 496.171l28.098 99.193c264.944-75.013 449.977-319.799 449.977-595.364v0zM103.111 355.236h-103.111c0 275.616 184.981 520.35 449.925 595.312l28.046-99.193c-220.709-62.434-374.86-266.439-374.86-496.119v0zM773.333 238.102v168.69c0 85.376-69.239 154.667-154.667 154.667s-154.667-69.291-154.667-154.667v-168.69c0-53.876-49.287-93.728-103.111-93.728v-46.916h515.556v46.864c-53.824 0-103.111 39.852-103.111 93.78v0zM618.667-57.208c56.917 0 103.111 46.194 103.111 103.111h-206.222c0-56.917 46.194-103.111 103.111-103.111v0z" />
<glyph unicode="&#xe901;" glyph-name="check" d="M0 448.78c0-282.347 228.648-511.22 510.717-511.22s510.717 228.873 510.717 511.22c0 282.347-228.699 511.22-510.717 511.22-282.069 0-510.717-228.873-510.717-511.22zM474.523 198.104l-218.523 164.054 65.557 87.495 131.114-98.432 229.45 306.234 87.409-65.622-295.007-393.729z" />
<glyph unicode="&#xe902;" glyph-name="close" d="M34.921 925.079c46.821 46.821 122.101 46.28 168.866-0.485l308.214-308.214 308.214 308.214c47.271 47.271 122.369 46.982 168.866 0.485 46.821-46.821 46.28-122.101-0.485-168.866l-308.214-308.214 308.214-308.214c47.271-47.271 46.982-122.369 0.485-168.866-46.821-46.821-122.101-46.28-168.866 0.485l-308.214 308.214-308.214-308.214c-47.271-47.271-122.369-46.982-168.866-0.485-46.821 46.821-46.28 122.101 0.485 168.866l308.214 308.214-308.214 308.214c-47.271 47.271-46.982 122.369-0.485 168.866z" />
<glyph unicode="&#xe903;" glyph-name="addreport" d="M752.967 768.161l-191.839 191.839h-477.465c-46.14 0-83.663-37.481-83.663-83.663v-752.967c0-46.182 37.523-83.705 83.663-83.705h516.577c-9.287 26.187-14.599 54.297-14.599 83.663 0 29.408 5.313 57.476 14.599 83.705l-474.746-0.125v83.663h83.663v376.609h83.663v-376.567h41.831v167.41h83.663v-167.368h41.831v251.031h83.663v-250.989h83.663v-28.78c29.826 44.927 73.791 79.48 125.494 97.802v408.443zM501.978 709.011v209.157l209.157-209.157h-209.157zM878.461 165.16v125.494h-83.663v-125.494h-125.494v-83.705h125.494v-125.494h83.663v125.494h125.494v83.705z" />
<glyph unicode="&#xe904;" glyph-name="add" d="M682.667 618.667v284.444c0 31.46-25.429 56.889-56.889 56.889h-227.556c-31.46 0-56.889-25.429-56.889-56.889v-284.444h-284.444c-31.46 0-56.889-25.429-56.889-56.889v-227.556c0-31.46 25.429-56.889 56.889-56.889h284.444v-284.444c0-31.46 25.429-56.889 56.889-56.889h227.556c31.46 0 56.889 25.429 56.889 56.889v284.444h284.444c31.46 0 56.889 25.429 56.889 56.889v227.556c0 31.46-25.429 56.889-56.889 56.889h-284.444z" />
<glyph unicode="&#xe905;" glyph-name="block" d="M323.368 960l-323.368-323.368v-700.632h700.632l323.368 323.368v700.632h-700.632zM592.842 43.789h-485.053v485.053h485.053v-485.053zM592.842 636.632h-431.158l215.579 215.579h431.158l-215.579-215.579z" />
<glyph unicode="&#xe906;" glyph-name="calendar" horiz-adv-x="1085" d="M975.238 862.476h-97.524v97.524h-97.524v-243.81h-97.524v146.286h-292.571v97.524h-97.524v-243.81h-97.524v146.286h-97.524c-53.784 0-97.524-43.788-97.524-97.524v-731.429c0-53.736 43.739-97.524 97.524-97.524h877.714c53.784 0 97.524 43.788 97.524 97.524v731.429c0 53.784-43.739 97.524-97.524 97.524v0zM341.333 82.286h-195.048v195.048h195.048v-195.048zM341.333 374.857h-195.048v195.048h195.048v-195.048zM633.905 82.286h-195.048v195.048h195.048v-195.048zM633.905 374.857h-195.048v195.048h195.048v-195.048zM926.476 374.857h-195.048v195.048h195.048v-195.048z" />
<glyph unicode="&#xe907;" glyph-name="check-light" horiz-adv-x="1013" d="M503.044-58.559c277.92 0 503.044 228.107 503.044 509.279s-225.125 509.279-503.044 509.279c-277.92 0-503.044-228.107-503.044-509.279s225.125-509.279 503.044-509.279v0zM503.044 6.115c-242.010 0-438.371 198.962-438.371 444.606s196.361 444.606 438.371 444.606c242.010 0 438.371-198.962 438.371-444.606s-196.361-444.606-438.371-444.606v0zM408.299 317.054l-104.277 104.277c-13.529 13.529-13.427 35.695 0.308 49.43 13.707 13.707 35.865 13.873 49.43 0.308l88.428-88.428 205.21 205.21c13.688 13.688 35.817 13.84 49.372 0.284 13.528-13.528 13.428-35.66-0.284-49.372l-230.119-230.119c-13.688-13.688-35.817-13.84-49.372-0.284-1.483 1.483-2.802 3.069-3.957 4.736-1.667 1.155-3.254 2.475-4.738 3.959z" />
<glyph unicode="&#xe908;" glyph-name="alert" horiz-adv-x="906" d="M112.246 960c-61.735 0-112.246-50.511-112.246-112.246v-617.354c0-61.735 50.511-112.246 112.246-112.246h161.354l102.022-128.87c40.517-51.179 106.145-51.259 146.725 0l102.022 128.87h161.354c61.735 0 112.246 50.511 112.246 112.246v617.354c0 61.735-50.511 112.246-112.246 112.246h-673.477zM448.985 230.4c-30.98 0-56.123 25.087-56.123 56.123 0 30.98 25.143 56.123 56.123 56.123s56.123-25.143 56.123-56.123c0-31.036-25.143-56.123-56.123-56.123v0zM505.108 454.892h-112.246v336.738h112.246v-336.738z" />
<glyph unicode="&#xe909;" glyph-name="electrical" horiz-adv-x="624" d="M55.079-63.686l570.233 642.353-333.716-12.235 210.597 393.569-502.193-499.608 340.196 8.157z" />
<glyph unicode="&#xe90a;" glyph-name="environment" horiz-adv-x="961" d="M222.633 436.102c17.057-5.024 31.414-14.575 43.104-28.685 11.673-14.11 17.526-30.564 17.526-49.377 0-21.96-7.906-40.773-23.686-56.44-15.796-15.683-35.052-23.517-57.784-23.517-22.118 0-41.067 7.834-56.847 23.517-15.796 15.667-23.686 34.48-23.686 56.44 0 18.813 5.691 35.267 17.057 49.377s25.885 23.661 43.573 28.685v222.918c0 5.634 2.053 10.498 6.16 14.575 4.107 4.061 8.682 6.116 13.743 6.116 5.691 0 10.574-2.055 14.681-6.116 4.107-4.077 6.16-8.941 6.16-14.575v-222.918zM201.792 237.647c33.468 0 62.053 11.75 85.739 35.267s35.521 51.865 35.521 85.125c0 22.57-5.529 42.94-16.572 61.127-11.075 18.187-25.756 32.602-44.058 43.277v357.404c0 16.293-5.853 30.403-17.526 42.33-11.689 11.911-26.047 17.866-43.104 17.866-16.427 0-30.638-5.955-42.635-17.866-11.997-11.927-17.995-26.037-17.995-42.33v-357.404c-17.688-10.675-32.207-25.090-43.573-43.277-11.382-18.187-17.057-38.558-17.057-61.127 0-33.26 11.835-61.609 35.521-85.125s52.255-35.267 85.739-35.267v0zM343.892 500.054c18.302-17.561 32.999-38.558 44.058-63.005 11.043-24.464 16.572-50.789 16.572-79.009 0-27.61-5.384-53.47-16.103-77.597-10.752-24.159-25.271-45.332-43.573-63.487-18.334-18.203-39.789-32.634-64.429-43.277-24.624-10.675-50.848-15.988-78.625-15.988-27.793 0-53.855 5.313-78.156 15.988-24.317 10.643-45.642 25.074-63.944 43.277-18.318 18.155-32.853 39.328-43.573 63.487-10.752 24.127-16.119 49.987-16.119 77.597 0 28.22 5.368 54.546 16.119 79.009 10.719 24.448 25.578 45.444 44.51 63.005v319.794c0 38.879 13.888 71.962 41.697 99.235 27.777 27.273 60.937 40.917 99.465 40.917 39.143 0 72.626-13.644 100.419-40.917 27.777-27.273 41.681-60.357 41.681-99.235v-319.794zM758.16 75.017c-6.958-1.379-12.764-4.727-17.395-10.020s-6.958-11.635-6.958-18.991c0-8.287 2.885-15.313 8.703-21.066 5.794-5.764 12.871-8.629 21.218-8.629 11.577 0 24.103 3.678 37.568 11.046 13.453 7.356 26.193 17.022 38.256 29.011 12.527 11.977 22.726 25.215 30.622 39.715 7.884 14.511 11.826 27.042 11.826 37.64 0 8.299-2.897 15.301-8.703 21.078-5.806 5.753-12.633 8.629-20.517 8.629-7.421 0-13.916-2.311-19.484-6.908-5.569-4.609-8.81-10.362-9.736-17.27-3.728-14.747-11.482-28.209-23.308-40.41s-25.86-20.146-42.092-23.824zM496.575 166.883c0 39.597 9.273 76.435 27.831 110.515 18.535 34.068 39.408 68.030 62.609 101.886 23.189 33.844 45.107 68.95 65.744 105.329 20.624 36.379 32.806 76.671 36.523 120.877v7.603c0 10.114 3.586 18.755 10.781 25.899 7.195 7.132 15.887 10.704 26.098 10.704 10.187 0 19.009-3.572 26.43-10.704 7.409-7.144 11.137-15.785 11.137-25.899v-7.603c3.23-44.206 15.186-84.499 35.822-120.877s42.543-71.484 65.744-105.329c23.201-33.856 44.181-67.818 62.965-101.886 18.784-34.080 28.176-70.919 28.176-110.515 0-31.322-6.032-60.557-18.083-87.717-12.075-27.184-28.532-50.89-49.394-71.154-20.874-20.264-45.226-36.261-73.058-48.002-27.82-11.741-57.741-17.612-89.74-17.612-31.56 0-61.339 5.871-89.407 17.612s-52.422 27.738-73.046 48.002c-20.636 20.264-36.986 43.97-49.049 71.154-12.063 27.16-18.083 56.395-18.083 87.717z" />
<glyph unicode="&#xe90b;" glyph-name="export" horiz-adv-x="799" d="M418.003 949.095l156.417-155.438c7.306-7.26 10.974-16.35 10.974-27.256 0-10.921-3.668-20.322-10.974-28.187-7.946-7.276-17.094-10.905-27.443-10.905-10.974 0-20.434 3.63-28.364 10.905l-88.715 89.075v-488.11c0-10.3-3.981-19.391-11.895-27.256-7.321-7.276-16.469-10.905-27.443-10.905s-20.122 3.63-27.443 10.905c-7.93 7.865-11.88 16.955-11.88 27.256v488.11l-88.73-89.075c-7.93-7.276-17.375-10.905-28.349-10.905-10.381 0-19.529 3.63-27.443 10.905-7.321 7.865-10.974 17.281-10.974 28.187 0 10.3 3.653 19.391 10.974 27.256l156.402 155.438c7.321 7.276 16.469 10.905 27.443 10.905s20.122-3.63 27.443-10.905v0zM117.079-64c-32.314 0-59.757 11.51-82.33 34.547-23.166 22.416-34.749 49.688-34.749 81.799v348.2c0 32.127 11.583 59.399 34.749 81.799 22.573 23.037 50.016 34.547 82.33 34.547h156.402v-78.169h-156.402c-10.365 0-19.513-3.646-27.443-10.921-7.321-7.849-10.974-16.94-10.974-27.256v-348.2c0-10.3 3.653-19.391 10.974-27.272 7.93-7.26 17.078-10.905 27.443-10.905h546.977c10.365 0 19.513 3.646 27.443 10.905 7.306 7.881 10.974 16.971 10.974 27.272v348.2c0 10.316-3.668 19.407-10.974 27.256-7.93 7.276-17.078 10.921-27.443 10.921h-156.417v78.169h156.417c32.329 0 59.757-11.51 82.314-34.547 23.182-22.4 34.765-49.672 34.765-81.799v-348.2c0-32.111-11.583-59.383-34.765-81.799-22.557-23.037-49.985-34.547-82.314-34.547h-546.977z" />
<glyph unicode="&#xe90c;" glyph-name="info" d="M448 656.009v-32c0-13.346 4.659-24.661 13.995-33.997 9.335-9.353 20.668-13.995 34.014-13.995h31.983c13.329 0 24.661 4.642 34.014 13.995 9.318 9.335 13.995 20.651 13.995 33.997v32c0 13.329-4.676 24.644-13.995 33.997-9.353 9.335-20.685 14.012-34.014 14.012h-31.983c-13.346 0-24.678-4.676-34.014-14.012-9.335-9.353-13.995-20.668-13.995-33.997v0zM640 256.017h-64v255.983h-192v-64h64v-191.983h-64v-64h256v64zM512 32c57.327 0 111.326 10.837 161.997 32.512 50.654 21.641 94.822 51.337 132.506 89.003 37.649 37.649 67.328 81.835 89.003 132.489 21.658 50.654 32.495 104.653 32.495 161.997s-10.837 111.343-32.495 162.014c-21.675 50.637-51.354 94.822-89.003 132.489-37.683 37.649-81.852 67.345-132.506 89.003-50.671 21.658-104.67 32.512-161.997 32.512-57.344 0-111.343-10.854-161.997-32.512-50.671-21.658-94.839-51.354-132.506-89.003-37.666-37.666-67.345-81.852-89.003-132.489-21.675-50.671-32.495-104.67-32.495-162.014s10.82-111.343 32.495-161.997c21.658-50.654 51.337-94.839 89.003-132.489 37.666-37.666 81.835-67.362 132.506-89.003 50.654-21.675 104.653-32.512 161.997-32.512v0zM512 960c70.656 0 137.165-13.346 199.492-39.987 62.327-26.675 116.668-63.164 163.004-109.5 46.336-46.353 82.825-100.676 109.5-163.004 26.658-62.345 40.004-128.853 40.004-199.509s-13.346-137.165-40.004-199.492c-26.675-62.345-63.164-116.668-109.5-163.004-46.336-46.353-100.676-82.842-163.004-109.5-62.327-26.641-128.836-40.004-199.492-40.004-70.673 0-137.182 13.363-199.492 40.004-62.345 26.658-116.685 63.147-163.004 109.5-46.353 46.336-82.842 100.659-109.5 163.004-26.675 62.327-40.004 128.836-40.004 199.492s13.329 137.165 40.004 199.509c26.658 62.327 63.147 116.651 109.5 163.004 46.319 46.336 100.659 82.825 163.004 109.5 62.31 26.641 128.819 39.987 199.492 39.987v0z" />
<glyph unicode="&#xe90d;" glyph-name="humiditydown" horiz-adv-x="1177" d="M374.729 128c-9.967-1.997-18.285-6.844-24.918-14.507s-9.967-16.845-9.967-27.494c0-11.998 4.133-22.17 12.468-30.498 8.3-8.346 18.438-12.493 30.395-12.493 16.584 0 34.529 5.325 53.817 15.991 19.271 10.65 37.522 24.644 54.803 42.001 17.945 17.34 32.556 36.506 43.867 57.498 11.294 21.009 16.941 39.151 16.941 54.494 0 12.015-4.15 22.153-12.468 30.515-8.317 8.329-18.098 12.493-29.392 12.493-10.631 0-19.935-3.345-27.912-10.001-7.977-6.673-12.621-15.002-13.948-25.003-5.341-21.35-16.448-40.841-33.389-58.505s-37.046-29.167-60.297-34.492zM0 261.001c0 57.327 13.284 110.66 39.869 160 26.551 49.323 56.453 98.492 89.689 147.507 33.219 48.998 64.618 99.823 94.18 152.491 29.545 52.668 46.996 111.002 52.32 175.002v11.008c0 14.643 5.137 27.153 15.444 37.495 10.308 10.325 22.758 15.497 37.386 15.497 14.594 0 27.232-5.171 37.862-15.497 10.614-10.342 15.955-22.852 15.955-37.495v-11.008c4.626-64 21.755-122.334 51.317-175.002s60.944-103.492 94.18-152.491c33.236-49.015 63.291-98.185 90.2-147.507 26.908-49.34 40.363-102.673 40.363-160 0-45.346-8.641-87.671-25.905-126.993-17.298-39.356-40.873-73.677-70.758-103.014-29.902-29.338-64.788-52.497-104.657-69.495-39.852-16.998-82.716-25.498-128.555-25.498-45.21 0-87.869 8.499-128.079 25.498s-75.095 40.158-104.64 69.495c-29.562 29.338-52.984 63.659-70.265 103.014-17.281 39.322-25.905 81.647-25.905 126.993zM922.017 327.388l-106.012 104.848c-15.561 15.39-39.876 15.39-55.438 0s-15.561-39.438 0-54.829l199.381-197.19 205.217 202.962c15.561 15.39 15.561 39.438 0 54.829-7.781 7.695-17.507 11.543-27.233 11.543s-19.452-3.848-28.205-11.543l-109.903-108.695v408.809c0 21.162-17.507 38.476-38.904 38.476s-38.904-17.314-38.904-38.476v-410.733z" />
<glyph unicode="&#xe90e;" glyph-name="humidityup" horiz-adv-x="1177" d="M374.729 128c-9.967-1.997-18.285-6.844-24.918-14.507s-9.967-16.845-9.967-27.494c0-11.998 4.133-22.17 12.468-30.498 8.3-8.346 18.438-12.493 30.395-12.493 16.584 0 34.529 5.325 53.817 15.991 19.271 10.65 37.522 24.644 54.803 42.001 17.945 17.34 32.556 36.506 43.867 57.498 11.294 21.009 16.941 39.151 16.941 54.494 0 12.015-4.15 22.153-12.468 30.515-8.317 8.329-18.098 12.493-29.392 12.493-10.631 0-19.935-3.345-27.912-10.001-7.977-6.673-12.621-15.002-13.948-25.003-5.341-21.35-16.448-40.841-33.389-58.505s-37.046-29.167-60.297-34.492zM0 261.001c0 57.327 13.284 110.66 39.869 160 26.551 49.323 56.453 98.492 89.689 147.507 33.219 48.998 64.618 99.823 94.18 152.491 29.545 52.668 46.996 111.002 52.32 175.002v11.008c0 14.643 5.137 27.153 15.444 37.495 10.308 10.325 22.758 15.497 37.386 15.497 14.594 0 27.232-5.171 37.862-15.497 10.614-10.342 15.955-22.852 15.955-37.495v-11.008c4.626-64 21.755-122.334 51.317-175.002s60.944-103.492 94.18-152.491c33.236-49.015 63.291-98.185 90.2-147.507 26.908-49.34 40.363-102.673 40.363-160 0-45.346-8.641-87.671-25.905-126.993-17.298-39.356-40.873-73.677-70.758-103.014-29.902-29.338-64.788-52.497-104.657-69.495-39.852-16.998-82.716-25.498-128.555-25.498-45.21 0-87.869 8.499-128.079 25.498s-75.095 40.158-104.64 69.495c-29.562 29.338-52.984 63.659-70.265 103.014-17.281 39.322-25.905 81.647-25.905 126.993zM1003.715 629.426l106.012-104.848c15.561-15.39 39.876-15.39 55.438 0s15.561 39.438 0 54.829l-199.381 197.19-205.217-202.962c-15.561-15.39-15.561-39.438 0-54.829 7.781-7.695 17.507-11.543 27.233-11.543s19.452 3.848 28.205 11.543l109.903 108.695v-408.809c0-21.162 17.507-38.476 38.904-38.476s38.904 17.314 38.904 38.476v410.733z" />
<glyph unicode="&#xe90f;" glyph-name="humidity" horiz-adv-x="672" d="M374.729 128c-9.967-1.997-18.285-6.844-24.918-14.507s-9.967-16.845-9.967-27.494c0-11.998 4.133-22.17 12.468-30.498 8.3-8.346 18.438-12.493 30.395-12.493 16.584 0 34.529 5.325 53.817 15.991 19.271 10.65 37.522 24.644 54.803 42.001 17.945 17.34 32.556 36.506 43.867 57.498 11.294 21.009 16.941 39.151 16.941 54.494 0 12.015-4.15 22.153-12.468 30.515-8.317 8.329-18.098 12.493-29.392 12.493-10.631 0-19.935-3.345-27.912-10.001-7.977-6.673-12.621-15.002-13.948-25.003-5.341-21.35-16.448-40.841-33.389-58.505s-37.046-29.167-60.297-34.492zM0 261.001c0 57.327 13.284 110.66 39.869 160 26.551 49.323 56.453 98.492 89.689 147.507 33.219 48.998 64.618 99.823 94.18 152.491 29.545 52.668 46.996 111.002 52.32 175.002v11.008c0 14.643 5.137 27.153 15.444 37.495 10.308 10.325 22.758 15.497 37.386 15.497 14.594 0 27.232-5.171 37.862-15.497 10.614-10.342 15.955-22.852 15.955-37.495v-11.008c4.626-64 21.755-122.334 51.317-175.002s60.944-103.492 94.18-152.491c33.236-49.015 63.291-98.185 90.2-147.507 26.908-49.34 40.363-102.673 40.363-160 0-45.346-8.641-87.671-25.905-126.993-17.298-39.356-40.873-73.677-70.758-103.014-29.902-29.338-64.788-52.497-104.657-69.495-39.852-16.998-82.716-25.498-128.555-25.498-45.21 0-87.869 8.499-128.079 25.498s-75.095 40.158-104.64 69.495c-29.562 29.338-52.984 63.659-70.265 103.014-17.281 39.322-25.905 81.647-25.905 126.993z" />
<glyph unicode="&#xe910;" glyph-name="logo" horiz-adv-x="1574" d="M1468.918 716.291v-443.535l-104.875-35.465v514.288l-314.759 106.085v-726.502l-104.964-35.288v797.21l-157.313 53.065-157.446-53.065v-797.21l-104.875 35.288v726.502l-314.803-106.085v-514.288l-104.875 35.465v443.535l-105.008-35.465v-480.108l314.803-106.085v585.040l105.008 35.376v-655.793l314.714-106.129v867.963l52.482 17.777 52.393-17.777v-867.963l314.891 106.129v655.793l104.875-35.376v-585.040l314.759 106.085v480.108l-105.008 35.465z" />
<glyph unicode="&#xe911;" glyph-name="mechanical" horiz-adv-x="1039" d="M564.069 951.83v-96.409l145.937 80.068v-76.8l-145.937-86.604v-86.604l145.937 83.336v-171.574l77.068 45.753v169.94l70.509 39.217v-171.574l96.744 58.826 36.074-62.094-100.024-58.826 149.216-83.336-65.589-39.217-155.775 86.604-77.068-49.021 152.495-83.336-152.495-86.604 77.068-45.753 159.054 80.068 62.31-35.949-149.216-86.604 100.024-55.557-32.795-58.826-100.024 58.826v-168.306l-70.509 35.949v169.94l-77.068 49.021v-168.306l-145.937 80.068v-89.872l145.937-83.336v-73.532l-145.937 86.604v-112.749h-73.788v112.749l-149.216-86.604v73.532l149.216 83.336v89.872l-152.495-80.068v168.306l-77.068-49.021v-168.306l-65.589-35.949v168.306l-103.303-58.826-32.795 58.826 100.024 55.557-145.937 86.604 59.030 35.949 159.054-80.068 77.068 45.753-152.495 86.604 152.495 83.336-77.068 49.021-159.054-86.604-65.589 39.217 149.216 83.336-93.465 58.826 32.795 62.094 100.024-58.826v171.574l65.589-39.217v-171.574l77.068-45.753v171.574l152.495-83.336v86.604l-149.216 86.604v76.8l149.216-80.068v96.409h73.788zM298.432 450.179l80.347-45.753 80.347 45.753-80.347 42.485-80.347-42.485zM406.655 634.826v-86.604l83.627-45.753v96.409l-83.627 35.949zM406.655 263.898l83.627 35.949v96.409l-83.627-42.485v-89.872zM564.069 598.877v-96.409l80.347 52.289v80.068l-80.347-35.949zM564.069 298.213l80.347-35.949v80.068l-80.347 52.289v-96.409zM603.423 450.179l77.068-45.753 80.347 45.753-80.347 42.485-77.068-42.485z" />
<glyph unicode="&#xe912;" glyph-name="weather" horiz-adv-x="1085" d="M899.495 282.422c-13.653 0-27.307-2.279-38.684-4.558-13.653 29.628-36.409 54.698-61.44 75.21 6.827 22.791 9.102 45.582 9.102 68.373 0 150.42-122.88 273.491-273.067 273.491s-273.067-123.071-273.067-273.491c0-113.954 70.542-211.955 170.667-252.979 4.551-120.792 104.676-218.793 225.28-218.793h241.209c91.022 0 166.116 75.21 166.116 166.373 0 93.443-75.093 166.373-166.116 166.373v0zM359.863 415.086c0 100.28 81.92 182.327 182.044 182.327s182.044-82.047 182.044-182.327c0-9.116 0-18.233-2.276-27.349-18.204 4.558-36.409 6.837-56.889 6.837-95.573 0-175.218-59.256-209.351-141.304-56.889 31.907-95.573 91.164-95.573 161.815v0zM905.996 33.63h-241.209c-65.991 0-120.604 45.582-131.982 107.117-2.276 9.116-2.276 18.233-2.276 27.349 0 22.791 6.827 45.582 15.929 63.814 22.756 43.303 68.267 72.931 120.604 72.931 6.827 0 13.653 0 20.48-2.279 31.858-4.558 59.164-20.512 79.644-43.303 13.653-15.954 25.031-36.465 29.582-59.256l13.653-63.814 54.613 34.186c11.378 6.837 27.307 11.395 40.96 11.395 40.96 0 75.093-34.186 75.093-75.21 0-38.745-34.133-72.931-75.093-72.931v0zM1038.629 381.217h-91.022c-25.031 0-45.511 20.512-45.511 45.582s20.48 45.582 45.511 45.582h91.022c25.031 0 45.511-20.512 45.511-45.582s-20.48-45.582-45.511-45.582v0zM857.559 672.411c-18.204-18.233-45.511-18.233-63.716 0s-18.204 45.582 0 63.814l63.716 63.814c18.204 18.233 45.511 18.233 63.716 0s18.204-45.582 0-63.814l-63.716-63.814zM557.511 777.673c-25.031 0-45.511 20.512-45.511 45.582v91.164c0 25.070 20.48 45.582 45.511 45.582s45.511-20.512 45.511-45.582v-91.164c0-25.070-20.48-45.582-45.511-45.582v0zM223.655 672.411l-63.716 63.814c-18.204 18.233-18.204 45.582 0 63.814s45.511 18.233 63.716 0l63.716-63.814c18.204-18.233 18.204-45.582 0-63.814-15.929-18.233-45.511-18.233-63.716 0v0zM182.044 426.799c0-25.070-20.48-45.582-45.511-45.582h-91.022c-25.031 0-45.511 20.512-45.511 45.582s20.48 45.582 45.511 45.582h91.022c25.031 0 45.511-20.512 45.511-45.582v0zM223.655 166.135c18.204 18.233 45.511 18.233 63.716 0s18.204-45.582 0-63.814l-63.716-63.814c-18.204-18.233-45.511-18.233-63.716 0s-18.204 45.582 0 63.814l63.716 63.814z" />
<glyph unicode="&#xe913;" glyph-name="plug" horiz-adv-x="523" d="M480.254 766.27h-61.863v161.17c0 17.908-14.652 32.56-32.56 32.56s-32.56-14.652-32.56-32.56v-161.17h-192.102v161.17c0 17.908-14.652 32.56-32.56 32.56s-32.56-14.652-32.56-32.56v-161.17h-63.491c0 0-30.932-1.628-30.932-30.932l512.814-1.628c0 1.628 0 32.56-34.188 32.56v0zM0 572.541c0 0 30.932-100.935 97.679-126.983s63.491-128.61 63.491-128.61v-61.863c0 0 1.628-32.56 32.56-32.56h30.932c0 0 26.048-131.866 92.795-157.914 48.839-26.048 30.932-53.723 37.444-66.747 0-17.908 1.628-61.863 1.628-61.863l60.235 1.628v56.979c-1.628 65.119-37.444 91.167-37.444 91.167-83.027 60.235-89.539 136.75-89.539 136.75h32.56c0 0 30.932 1.628 30.932 29.304v65.119c0 0 8.14 126.983 66.747 130.238s96.051 130.238 96.051 130.238v126.983h-512.814v-131.866h-3.256zM304.432 251.828h-96.051c-8.14 0-16.28 6.512-16.28 16.28 0 8.14 6.512 16.28 16.28 16.28h96.051c8.14 0 16.28-6.512 16.28-16.28 0-8.14-6.512-16.28-16.28-16.28v0zM304.432 316.948h-96.051c-8.14 0-16.28 6.512-16.28 16.28 0 8.14 6.512 16.28 16.28 16.28h96.051c8.14 0 16.28-6.512 16.28-16.28s-6.512-16.28-16.28-16.28v0zM198.614 412.998h113.959c8.14 0 16.28-6.512 16.28-16.28 0-8.14-6.512-16.28-16.28-16.28h-113.959c-8.14 0-16.28 6.512-16.28 16.28s6.512 16.28 16.28 16.28v0z" />
<glyph unicode="&#xe914;" glyph-name="report" horiz-adv-x="824" d="M613.804 960h-522.287c-50.472 0-91.517-41-91.517-91.517v-823.652c0-50.472 41.045-91.517 91.517-91.517h640.618c50.472 0 91.517 41.045 91.517 91.517v705.321l-209.848 209.848zM686.377 136.348l-549.101-0.092v91.517h91.517v411.963h91.517v-411.963h45.758v183.125h91.517v-183.034h45.758v274.551h91.517v-274.551h91.517v-91.517zM549.101 685.449v228.792l228.792-228.792h-228.792z" />
<glyph unicode="&#xe915;" glyph-name="shape" d="M512 960c-282.317 0-512-229.683-512-512 0-282.368 229.683-512 512-512s512 229.632 512 512c0 282.317-229.683 512-512 512v0zM460.8 755.2h102.4v-358.4h-102.4v358.4zM512 179.2c-35.328 0-64 28.621-64 64 0 35.328 28.672 64 64 64s64-28.672 64-64c0-35.379-28.672-64-64-64v0z" />
<glyph unicode="&#xe916;" glyph-name="sheild" horiz-adv-x="866" d="M448.856 954.606c-12.971 7.192-28.639 7.192-41.611 0l-385.284-214.047c-13.571-7.577-21.961-21.876-21.961-37.415 0-24.808 3.403-515.599 250.914-676.884 48.909-31.871 107.35-90.259 177.18-90.259 75.774 0 138.138 61.762 189.464 98.675 235.34 169.25 238.629 644.079 238.629 668.469 0 15.54-8.433 29.838-22.047 37.415l-385.284 214.047zM350.019 276.083l-107.972 107.972c-14.008 14.008-13.903 36.96 0.319 51.182 14.193 14.193 37.136 14.364 51.182 0.319l91.562-91.562 212.482 212.482c14.173 14.173 37.086 14.33 51.122 0.294 14.007-14.007 13.904-36.924-0.294-51.122l-238.274-238.274c-14.173-14.173-37.086-14.33-51.122-0.294-1.535 1.535-2.901 3.178-4.097 4.904-1.726 1.196-3.369 2.563-4.906 4.099z" />
<glyph unicode="&#xe917;" glyph-name="temp" horiz-adv-x="525" d="M283.011 291.34c21.683-6.413 39.934-18.603 54.794-36.612 14.839-18.009 22.279-39.009 22.279-63.020 0-28.027-10.050-52.039-30.11-72.035-20.080-20.017-44.558-30.015-73.455-30.015-28.116 0-52.204 9.998-72.263 30.015-20.080 19.996-30.11 44.008-30.11 72.035 0 24.012 7.235 45.012 21.683 63.020s32.905 30.199 55.39 36.612v284.514c0 7.191 2.61 13.399 7.831 18.603 5.22 5.183 11.037 7.806 17.47 7.806 7.235 0 13.441-2.622 18.662-7.806 5.22-5.204 7.831-11.412 7.831-18.603v-284.514zM256.518 38.050c42.544 0 78.881 14.997 108.991 45.012s45.154 66.196 45.154 108.647c0 28.806-7.029 54.805-21.067 78.017-14.079 23.213-32.74 41.611-56.006 55.235v456.161c0 20.795-7.44 38.804-22.279 54.026-14.86 15.202-33.11 22.803-54.794 22.803-20.882 0-38.947-7.601-54.198-22.803-15.25-15.222-22.875-33.231-22.875-54.026v-456.161c-22.485-13.624-40.941-32.022-55.39-55.235-14.469-23.213-21.683-49.212-21.683-78.017 0-42.451 15.045-78.632 45.154-108.647s66.426-45.012 108.991-45.012v0zM437.156 372.963c23.266-22.414 41.948-49.212 56.006-80.415 14.038-31.223 21.067-64.823 21.067-100.841 0-35.239-6.844-68.245-20.471-99.038-13.668-30.834-32.124-57.858-55.39-81.029-23.307-23.233-50.58-41.652-81.903-55.235-31.302-13.624-64.638-20.406-99.948-20.406-35.33 0-68.461 6.781-99.352 20.406-30.911 13.583-58.020 32.002-81.286 55.235-23.286 23.172-41.763 50.195-55.39 81.029-13.668 30.793-20.491 63.799-20.491 99.038 0 36.018 6.824 69.617 20.491 100.841 13.626 31.203 32.514 58.001 56.582 80.415v408.158c0 49.621 17.655 91.847 53.005 126.655 35.31 34.809 77.463 52.223 126.44 52.223 49.758 0 92.323-17.415 127.653-52.223 35.31-34.809 52.985-77.034 52.985-126.655v-408.158z" />
<glyph unicode="&#xe918;" glyph-name="temperaturedown" horiz-adv-x="943" d="M283.011 291.34c21.683-6.413 39.934-18.603 54.794-36.612 14.839-18.009 22.279-39.009 22.279-63.020 0-28.027-10.050-52.039-30.11-72.035-20.080-20.017-44.558-30.015-73.455-30.015-28.116 0-52.204 9.998-72.263 30.015-20.080 19.996-30.11 44.008-30.11 72.035 0 24.012 7.235 45.012 21.683 63.020s32.905 30.199 55.39 36.612v284.514c0 7.191 2.61 13.399 7.831 18.603 5.22 5.183 11.037 7.806 17.47 7.806 7.235 0 13.441-2.622 18.662-7.806 5.22-5.204 7.831-11.412 7.831-18.603v-284.514zM256.518 38.050c42.544 0 78.881 14.997 108.991 45.012s45.154 66.196 45.154 108.647c0 28.806-7.029 54.805-21.067 78.017-14.079 23.213-32.74 41.611-56.006 55.235v456.161c0 20.795-7.44 38.804-22.279 54.026-14.86 15.202-33.11 22.803-54.794 22.803-20.882 0-38.947-7.601-54.198-22.803-15.25-15.222-22.875-33.231-22.875-54.026v-456.161c-22.485-13.624-40.941-32.022-55.39-55.235-14.469-23.213-21.683-49.212-21.683-78.017 0-42.451 15.045-78.632 45.154-108.647s66.426-45.012 108.991-45.012v0zM437.156 372.963c23.266-22.414 41.948-49.212 56.006-80.415 14.038-31.223 21.067-64.823 21.067-100.841 0-35.239-6.844-68.245-20.471-99.038-13.668-30.834-32.124-57.858-55.39-81.029-23.307-23.233-50.58-41.652-81.903-55.235-31.302-13.624-64.638-20.406-99.948-20.406-35.33 0-68.461 6.781-99.352 20.406-30.911 13.583-58.020 32.002-81.286 55.235-23.286 23.172-41.763 50.195-55.39 81.029-13.668 30.793-20.491 63.799-20.491 99.038 0 36.018 6.824 69.617 20.491 100.841 13.626 31.203 32.514 58.001 56.582 80.415v408.158c0 49.621 17.655 91.847 53.005 126.655 35.31 34.809 77.463 52.223 126.44 52.223 49.758 0 92.323-17.415 127.653-52.223 35.31-34.809 52.985-77.034 52.985-126.655v-408.158zM718.515 415.776l-93.458 92.431c-13.719 13.568-35.154 13.568-48.873 0s-13.719-34.768 0-48.336l175.77-173.839 180.915 178.927c13.719 13.568 13.719 34.768 0 48.336-6.859 6.784-15.433 10.176-24.008 10.176s-17.148-3.392-24.865-10.176l-96.888-95.823v360.397c0 18.656-15.433 33.92-34.297 33.92s-34.297-15.264-34.297-33.92v-362.093z" />
<glyph unicode="&#xe919;" glyph-name="close-light" horiz-adv-x="973" d="M912.032-44.162l-425.641 440.294-425.627-440.294c-1.301-1.332-3.060-2.091-4.901-2.091s-3.6 0.759-4.887 2.091l-48.941 50.638c-2.714 2.793-2.714 7.318 0 10.125l425.627 440.279-425.627 440.265c-2.714 2.807-2.714 7.332 0 10.125l48.941 50.638c1.343 1.389 3.115 2.091 4.887 2.091s3.544-0.702 4.901-2.091l425.627-440.279 425.641 440.279c1.357 1.389 3.129 2.091 4.901 2.091s3.544-0.702 4.901-2.091l48.941-50.638c1.288-1.332 2.021-3.151 2.021-5.055s-0.734-3.723-2.021-5.070l-425.641-440.265 425.641-440.279c2.7-2.807 2.7-7.332 0-10.125l-48.941-50.638c-1.357-1.389-3.129-2.091-4.901-2.091s-3.544 0.702-4.901 2.091z" />
<glyph unicode="&#xe91a;" glyph-name="temperatureup" horiz-adv-x="943" d="M283.011 291.34c21.683-6.413 39.934-18.603 54.794-36.612 14.839-18.009 22.279-39.009 22.279-63.020 0-28.027-10.050-52.039-30.11-72.035-20.080-20.017-44.558-30.015-73.455-30.015-28.116 0-52.204 9.998-72.263 30.015-20.080 19.996-30.11 44.008-30.11 72.035 0 24.012 7.235 45.012 21.683 63.020s32.905 30.199 55.39 36.612v284.514c0 7.191 2.61 13.399 7.831 18.603 5.22 5.183 11.037 7.806 17.47 7.806 7.235 0 13.441-2.622 18.662-7.806 5.22-5.204 7.831-11.412 7.831-18.603v-284.514zM256.518 38.050c42.544 0 78.881 14.997 108.991 45.012s45.154 66.196 45.154 108.647c0 28.806-7.029 54.805-21.067 78.017-14.079 23.213-32.74 41.611-56.006 55.235v456.161c0 20.795-7.44 38.804-22.279 54.026-14.86 15.202-33.11 22.803-54.794 22.803-20.882 0-38.947-7.601-54.198-22.803-15.25-15.222-22.875-33.231-22.875-54.026v-456.161c-22.485-13.624-40.941-32.022-55.39-55.235-14.469-23.213-21.683-49.212-21.683-78.017 0-42.451 15.045-78.632 45.154-108.647s66.426-45.012 108.991-45.012v0zM437.156 372.963c23.266-22.414 41.948-49.212 56.006-80.415 14.038-31.223 21.067-64.823 21.067-100.841 0-35.239-6.844-68.245-20.471-99.038-13.668-30.834-32.124-57.858-55.39-81.029-23.307-23.233-50.58-41.652-81.903-55.235-31.302-13.624-64.638-20.406-99.948-20.406-35.33 0-68.461 6.781-99.352 20.406-30.911 13.583-58.020 32.002-81.286 55.235-23.286 23.172-41.763 50.195-55.39 81.029-13.668 30.793-20.491 63.799-20.491 99.038 0 36.018 6.824 69.617 20.491 100.841 13.626 31.203 32.514 58.001 56.582 80.415v408.158c0 49.621 17.655 91.847 53.005 126.655 35.31 34.809 77.463 52.223 126.44 52.223 49.758 0 92.323-17.415 127.653-52.223 35.31-34.809 52.985-77.034 52.985-126.655v-408.158zM790.538 682.046l93.458-92.431c13.719-13.568 35.154-13.568 48.873 0s13.719 34.768 0 48.336l-175.77 173.839-180.915-178.927c-13.719-13.568-13.719-34.768 0-48.336 6.859-6.784 15.433-10.176 24.008-10.176s17.148 3.392 24.865 10.176l96.888 95.823v-360.397c0-18.656 15.433-33.92 34.297-33.92s34.297 15.264 34.297 33.92v362.093z" />
<glyph unicode="&#xe91b;" glyph-name="ticket" horiz-adv-x="922" d="M768 960v-153.6h-102.4v153.6h-153.6v-153.6h-102.4v153.6h-153.6v-153.6h-102.4v153.6h-153.6v-1024h921.6v1024h-153.6zM204.8 601.6h409.6v-102.4h-409.6v102.4zM716.8 89.6h-512v102.4h512v-102.4zM716.8 294.4h-512v102.4h512v-102.4z" />
<glyph unicode="&#xe91c;" glyph-name="trash" horiz-adv-x="942" d="M628.053 852.885v107.115h-314.027v-107.115h-314.027v-107.169h942.080v107.169zM104.676 692.131v-643.014c0-59.050 46.947-107.169 104.676-107.169h523.378c57.729 0 104.676 48.119 104.676 107.169v643.014h-732.729zM418.702 156.232h-104.676v321.507h104.676v-321.507zM628.053 156.232h-104.676v321.507h104.676v-321.507z" />
<glyph unicode="&#xf002;" glyph-name="search" horiz-adv-x="951" d="M658.286 475.428q0 105.714-75.143 180.857t-180.857 75.143-180.857-75.143-75.143-180.857 75.143-180.857 180.857-75.143 180.857 75.143 75.143 180.857zM950.857 0q0-29.714-21.714-51.429t-51.429-21.714q-30.857 0-51.429 21.714l-196 195.429q-102.286-70.857-228-70.857-81.714 0-156.286 31.714t-128.571 85.714-85.714 128.571-31.714 156.286 31.714 156.286 85.714 128.571 128.571 85.714 156.286 31.714 156.286-31.714 128.571-85.714 85.714-128.571 31.714-156.286q0-125.714-70.857-228l196-196q21.143-21.143 21.143-51.429z" />
<glyph unicode="&#xf015;" glyph-name="home" horiz-adv-x="951" d="M804.571 384v-274.286q0-14.857-10.857-25.714t-25.714-10.857h-219.429v219.429h-146.286v-219.429h-219.429q-14.857 0-25.714 10.857t-10.857 25.714v274.286q0 0.571 0.286 1.714t0.286 1.714l328.571 270.857 328.571-270.857q0.571-1.143 0.571-3.429zM932 423.428l-35.429-42.286q-4.571-5.143-12-6.286h-1.714q-7.429 0-12 4l-395.429 329.714-395.429-329.714q-6.857-4.571-13.714-4-7.429 1.143-12 6.286l-35.429 42.286q-4.571 5.714-4 13.429t6.286 12.286l410.857 342.286q18.286 14.857 43.429 14.857t43.429-14.857l139.429-116.571v111.429q0 8 5.143 13.143t13.143 5.143h109.714q8 0 13.143-5.143t5.143-13.143v-233.143l125.143-104q5.714-4.571 6.286-12.286t-4-13.429z" />
<glyph unicode="&#xf016;" glyph-name="file-o" horiz-adv-x="878" d="M838.857 733.714q16-16 27.429-43.429t11.429-50.286v-658.286q0-22.857-16-38.857t-38.857-16h-768q-22.857 0-38.857 16t-16 38.857v914.286q0 22.857 16 38.857t38.857 16h512q22.857 0 50.286-11.429t43.429-27.429zM585.143 873.143v-214.857h214.857q-5.714 16.571-12.571 23.429l-178.857 178.857q-6.857 6.857-23.429 12.571zM804.571 0v585.143h-237.714q-22.857 0-38.857 16t-16 38.857v237.714h-438.857v-877.714h731.429z" />
<glyph unicode="&#xf040;" glyph-name="pencil" horiz-adv-x="866" d="M207.429 73.143l52 52-134.286 134.286-52-52v-61.143h73.143v-73.143h61.143zM506.286 603.428q0 12.571-12.571 12.571-5.714 0-9.714-4l-309.714-309.714q-4-4-4-9.714 0-12.571 12.571-12.571 5.714 0 9.714 4l309.714 309.714q4 4 4 9.714zM475.429 713.143l237.714-237.714-475.429-475.429h-237.714v237.714zM865.714 658.286q0-30.286-21.143-51.429l-94.857-94.857-237.714 237.714 94.857 94.286q20.571 21.714 51.429 21.714 30.286 0 52-21.714l134.286-133.714q21.143-22.286 21.143-52z" />
<glyph unicode="&#xf048;" glyph-name="step-backward" horiz-adv-x="585" d="M559.429 870.286q10.857 10.857 18.286 7.429t7.429-18.286v-841.143q0-14.857-7.429-18.286t-18.286 7.429l-405.714 405.714q-5.143 5.143-7.429 10.857v-387.429q0-14.857-10.857-25.714t-25.714-10.857h-73.143q-14.857 0-25.714 10.857t-10.857 25.714v804.571q0 14.857 10.857 25.714t25.714 10.857h73.143q14.857 0 25.714-10.857t10.857-25.714v-387.429q2.286 6.286 7.429 10.857z" />
<glyph unicode="&#xf049;" glyph-name="fast-backward" d="M998.286 870.286q10.857 10.857 18.286 7.429t7.429-18.286v-841.143q0-14.857-7.429-18.286t-18.286 7.429l-405.714 405.714q-5.143 5.143-7.429 10.857v-405.714q0-14.857-7.429-18.286t-18.286 7.429l-405.714 405.714q-5.143 5.143-7.429 10.857v-387.429q0-14.857-10.857-25.714t-25.714-10.857h-73.143q-14.857 0-25.714 10.857t-10.857 25.714v804.571q0 14.857 10.857 25.714t25.714 10.857h73.143q14.857 0 25.714-10.857t10.857-25.714v-387.429q2.286 6.286 7.429 10.857l405.714 405.714q10.857 10.857 18.286 7.429t7.429-18.286v-405.714q2.286 6.286 7.429 10.857z" />
<glyph unicode="&#xf04a;" glyph-name="backward" horiz-adv-x="1021" d="M925.143 870.286q10.857 10.857 18.286 7.429t7.429-18.286v-841.143q0-14.857-7.429-18.286t-18.286 7.429l-405.714 405.714q-4.571 5.143-7.429 10.857v-405.714q0-14.857-7.429-18.286t-18.286 7.429l-405.714 405.714q-10.857 10.857-10.857 25.714t10.857 25.714l405.714 405.714q10.857 10.857 18.286 7.429t7.429-18.286v-405.714q2.857 6.286 7.429 10.857z" />
<glyph unicode="&#xf04b;" glyph-name="play" horiz-adv-x="804" d="M790.857 421.143l-758.857-421.714q-13.143-7.429-22.571-1.714t-9.429 20.571v841.143q0 14.857 9.429 20.571t22.571-1.714l758.857-421.714q13.143-7.429 13.143-17.714t-13.143-17.714z" />
<glyph unicode="&#xf04c;" glyph-name="pause" horiz-adv-x="878" d="M877.714 841.143v-804.571q0-14.857-10.857-25.714t-25.714-10.857h-292.571q-14.857 0-25.714 10.857t-10.857 25.714v804.571q0 14.857 10.857 25.714t25.714 10.857h292.571q14.857 0 25.714-10.857t10.857-25.714zM365.714 841.143v-804.571q0-14.857-10.857-25.714t-25.714-10.857h-292.571q-14.857 0-25.714 10.857t-10.857 25.714v804.571q0 14.857 10.857 25.714t25.714 10.857h292.571q14.857 0 25.714-10.857t10.857-25.714z" />
<glyph unicode="&#xf04d;" glyph-name="stop" horiz-adv-x="878" d="M877.714 841.143v-804.571q0-14.857-10.857-25.714t-25.714-10.857h-804.571q-14.857 0-25.714 10.857t-10.857 25.714v804.571q0 14.857 10.857 25.714t25.714 10.857h804.571q14.857 0 25.714-10.857t10.857-25.714z" />
<glyph unicode="&#xf04e;" glyph-name="forward" horiz-adv-x="881" d="M25.714 7.428q-10.857-10.857-18.286-7.429t-7.429 18.286v841.143q0 14.857 7.429 18.286t18.286-7.429l405.714-405.714q4.571-4.571 7.429-10.857v405.714q0 14.857 7.429 18.286t18.286-7.429l405.714-405.714q10.857-10.857 10.857-25.714t-10.857-25.714l-405.714-405.714q-10.857-10.857-18.286-7.429t-7.429 18.286v405.714q-2.857-5.714-7.429-10.857z" />
<glyph unicode="&#xf050;" glyph-name="fast-forward" d="M25.714 7.428q-10.857-10.857-18.286-7.429t-7.429 18.286v841.143q0 14.857 7.429 18.286t18.286-7.429l405.714-405.714q4.571-4.571 7.429-10.857v405.714q0 14.857 7.429 18.286t18.286-7.429l405.714-405.714q4.571-4.571 7.429-10.857v387.429q0 14.857 10.857 25.714t25.714 10.857h73.143q14.857 0 25.714-10.857t10.857-25.714v-804.571q0-14.857-10.857-25.714t-25.714-10.857h-73.143q-14.857 0-25.714 10.857t-10.857 25.714v387.429q-2.857-5.714-7.429-10.857l-405.714-405.714q-10.857-10.857-18.286-7.429t-7.429 18.286v405.714q-2.857-5.714-7.429-10.857z" />
<glyph unicode="&#xf051;" glyph-name="step-forward" horiz-adv-x="585" d="M25.714 7.428q-10.857-10.857-18.286-7.429t-7.429 18.286v841.143q0 14.857 7.429 18.286t18.286-7.429l405.714-405.714q4.571-4.571 7.429-10.857v387.429q0 14.857 10.857 25.714t25.714 10.857h73.143q14.857 0 25.714-10.857t10.857-25.714v-804.571q0-14.857-10.857-25.714t-25.714-10.857h-73.143q-14.857 0-25.714 10.857t-10.857 25.714v387.429q-2.857-5.714-7.429-10.857z" />
<glyph unicode="&#xf053;" glyph-name="chevron-left" horiz-adv-x="768" d="M669.143 778.857l-303.429-303.429 303.429-303.429q10.857-10.857 10.857-25.714t-10.857-25.714l-94.857-94.857q-10.857-10.857-25.714-10.857t-25.714 10.857l-424 424q-10.857 10.857-10.857 25.714t10.857 25.714l424 424q10.857 10.857 25.714 10.857t25.714-10.857l94.857-94.857q10.857-10.857 10.857-25.714t-10.857-25.714z" />
<glyph unicode="&#xf054;" glyph-name="chevron-right" horiz-adv-x="695" d="M632.571 449.714l-424-424q-10.857-10.857-25.714-10.857t-25.714 10.857l-94.857 94.857q-10.857 10.857-10.857 25.714t10.857 25.714l303.429 303.429-303.429 303.429q-10.857 10.857-10.857 25.714t10.857 25.714l94.857 94.857q10.857 10.857 25.714 10.857t25.714-10.857l424-424q10.857-10.857 10.857-25.714t-10.857-25.714z" />
<glyph unicode="&#xf08e;" glyph-name="external-link" d="M804.571 420.571v-182.857q0-68-48.286-116.286t-116.286-48.286h-475.429q-68 0-116.286 48.286t-48.286 116.286v475.429q0 68 48.286 116.286t116.286 48.286h402.286q8 0 13.143-5.143t5.143-13.143v-36.571q0-8-5.143-13.143t-13.143-5.143h-402.286q-37.714 0-64.571-26.857t-26.857-64.571v-475.429q0-37.714 26.857-64.571t64.571-26.857h475.429q37.714 0 64.571 26.857t26.857 64.571v182.857q0 8 5.143 13.143t13.143 5.143h36.571q8 0 13.143-5.143t5.143-13.143zM1024 914.286v-292.571q0-14.857-10.857-25.714t-25.714-10.857-25.714 10.857l-100.571 100.571-372.571-372.571q-5.714-5.714-13.143-5.714t-13.143 5.714l-65.143 65.143q-5.714 5.714-5.714 13.143t5.714 13.143l372.571 372.571-100.571 100.571q-10.857 10.857-10.857 25.714t10.857 25.714 25.714 10.857h292.571q14.857 0 25.714-10.857t10.857-25.714z" />
<glyph unicode="&#xf0c9;" glyph-name="bars, navicon, reorder" horiz-adv-x="878" d="M877.714 182.857v-73.143q0-14.857-10.857-25.714t-25.714-10.857h-804.571q-14.857 0-25.714 10.857t-10.857 25.714v73.143q0 14.857 10.857 25.714t25.714 10.857h804.571q14.857 0 25.714-10.857t10.857-25.714zM877.714 475.428v-73.143q0-14.857-10.857-25.714t-25.714-10.857h-804.571q-14.857 0-25.714 10.857t-10.857 25.714v73.143q0 14.857 10.857 25.714t25.714 10.857h804.571q14.857 0 25.714-10.857t10.857-25.714zM877.714 768v-73.143q0-14.857-10.857-25.714t-25.714-10.857h-804.571q-14.857 0-25.714 10.857t-10.857 25.714v73.143q0 14.857 10.857 25.714t25.714 10.857h804.571q14.857 0 25.714-10.857t10.857-25.714z" />
<glyph unicode="&#xf0fe;" glyph-name="plus-square" horiz-adv-x="878" d="M731.429 402.286v73.143q0 14.857-10.857 25.714t-25.714 10.857h-182.857v182.857q0 14.857-10.857 25.714t-25.714 10.857h-73.143q-14.857 0-25.714-10.857t-10.857-25.714v-182.857h-182.857q-14.857 0-25.714-10.857t-10.857-25.714v-73.143q0-14.857 10.857-25.714t25.714-10.857h182.857v-182.857q0-14.857 10.857-25.714t25.714-10.857h73.143q14.857 0 25.714 10.857t10.857 25.714v182.857h182.857q14.857 0 25.714 10.857t10.857 25.714zM877.714 713.143v-548.571q0-68-48.286-116.286t-116.286-48.286h-548.571q-68 0-116.286 48.286t-48.286 116.286v548.571q0 68 48.286 116.286t116.286 48.286h548.571q68 0 116.286-48.286t48.286-116.286z" />
<glyph unicode="&#xf100;" glyph-name="angle-double-left" horiz-adv-x="603" d="M358.286 164.571q0-7.429-5.714-13.143l-28.571-28.571q-5.714-5.714-13.143-5.714t-13.143 5.714l-266.286 266.286q-5.714 5.714-5.714 13.143t5.714 13.143l266.286 266.286q5.714 5.714 13.143 5.714t13.143-5.714l28.571-28.571q5.714-5.714 5.714-13.143t-5.714-13.143l-224.571-224.571 224.571-224.571q5.714-5.714 5.714-13.143zM577.714 164.571q0-7.429-5.714-13.143l-28.571-28.571q-5.714-5.714-13.143-5.714t-13.143 5.714l-266.286 266.286q-5.714 5.714-5.714 13.143t5.714 13.143l266.286 266.286q5.714 5.714 13.143 5.714t13.143-5.714l28.571-28.571q5.714-5.714 5.714-13.143t-5.714-13.143l-224.571-224.571 224.571-224.571q5.714-5.714 5.714-13.143z" />
<glyph unicode="&#xf101;" glyph-name="angle-double-right" horiz-adv-x="567" d="M340 402.286q0-7.429-5.714-13.143l-266.286-266.286q-5.714-5.714-13.143-5.714t-13.143 5.714l-28.571 28.571q-5.714 5.714-5.714 13.143t5.714 13.143l224.571 224.571-224.571 224.571q-5.714 5.714-5.714 13.143t5.714 13.143l28.571 28.571q5.714 5.714 13.143 5.714t13.143-5.714l266.286-266.286q5.714-5.714 5.714-13.143zM559.429 402.286q0-7.429-5.714-13.143l-266.286-266.286q-5.714-5.714-13.143-5.714t-13.143 5.714l-28.571 28.571q-5.714 5.714-5.714 13.143t5.714 13.143l224.571 224.571-224.571 224.571q-5.714 5.714-5.714 13.143t5.714 13.143l28.571 28.571q5.714 5.714 13.143 5.714t13.143-5.714l266.286-266.286q5.714-5.714 5.714-13.143z" />
<glyph unicode="&#xf102;" glyph-name="angle-double-up" horiz-adv-x="658" d="M614.286 201.143q0-7.429-5.714-13.143l-28.571-28.571q-5.714-5.714-13.143-5.714t-13.143 5.714l-224.571 224.571-224.571-224.571q-5.714-5.714-13.143-5.714t-13.143 5.714l-28.571 28.571q-5.714 5.714-5.714 13.143t5.714 13.143l266.286 266.286q5.714 5.714 13.143 5.714t13.143-5.714l266.286-266.286q5.714-5.714 5.714-13.143zM614.286 420.571q0-7.429-5.714-13.143l-28.571-28.571q-5.714-5.714-13.143-5.714t-13.143 5.714l-224.571 224.571-224.571-224.571q-5.714-5.714-13.143-5.714t-13.143 5.714l-28.571 28.571q-5.714 5.714-5.714 13.143t5.714 13.143l266.286 266.286q5.714 5.714 13.143 5.714t13.143-5.714l266.286-266.286q5.714-5.714 5.714-13.143z" />
<glyph unicode="&#xf103;" glyph-name="angle-double-down" horiz-adv-x="658" d="M614.286 457.143q0-7.429-5.714-13.143l-266.286-266.286q-5.714-5.714-13.143-5.714t-13.143 5.714l-266.286 266.286q-5.714 5.714-5.714 13.143t5.714 13.143l28.571 28.571q5.714 5.714 13.143 5.714t13.143-5.714l224.571-224.571 224.571 224.571q5.714 5.714 13.143 5.714t13.143-5.714l28.571-28.571q5.714-5.714 5.714-13.143zM614.286 676.571q0-7.429-5.714-13.143l-266.286-266.286q-5.714-5.714-13.143-5.714t-13.143 5.714l-266.286 266.286q-5.714 5.714-5.714 13.143t5.714 13.143l28.571 28.571q5.714 5.714 13.143 5.714t13.143-5.714l224.571-224.571 224.571 224.571q5.714 5.714 13.143 5.714t13.143-5.714l28.571-28.571q5.714-5.714 5.714-13.143z" />
<glyph unicode="&#xf104;" glyph-name="angle-left" horiz-adv-x="384" d="M358.286 640q0-7.429-5.714-13.143l-224.571-224.571 224.571-224.571q5.714-5.714 5.714-13.143t-5.714-13.143l-28.571-28.571q-5.714-5.714-13.143-5.714t-13.143 5.714l-266.286 266.286q-5.714 5.714-5.714 13.143t5.714 13.143l266.286 266.286q5.714 5.714 13.143 5.714t13.143-5.714l28.571-28.571q5.714-5.714 5.714-13.143z" />
<glyph unicode="&#xf105;" glyph-name="angle-right" horiz-adv-x="347" d="M340 402.286q0-7.429-5.714-13.143l-266.286-266.286q-5.714-5.714-13.143-5.714t-13.143 5.714l-28.571 28.571q-5.714 5.714-5.714 13.143t5.714 13.143l224.571 224.571-224.571 224.571q-5.714 5.714-5.714 13.143t5.714 13.143l28.571 28.571q5.714 5.714 13.143 5.714t13.143-5.714l266.286-266.286q5.714-5.714 5.714-13.143z" />
<glyph unicode="&#xf106;" glyph-name="angle-up" horiz-adv-x="658" d="M614.286 274.286q0-7.429-5.714-13.143l-28.571-28.571q-5.714-5.714-13.143-5.714t-13.143 5.714l-224.571 224.571-224.571-224.571q-5.714-5.714-13.143-5.714t-13.143 5.714l-28.571 28.571q-5.714 5.714-5.714 13.143t5.714 13.143l266.286 266.286q5.714 5.714 13.143 5.714t13.143-5.714l266.286-266.286q5.714-5.714 5.714-13.143z" />
<glyph unicode="&#xf107;" glyph-name="angle-down" horiz-adv-x="658" d="M614.286 530.286q0-7.429-5.714-13.143l-266.286-266.286q-5.714-5.714-13.143-5.714t-13.143 5.714l-266.286 266.286q-5.714 5.714-5.714 13.143t5.714 13.143l28.571 28.571q5.714 5.714 13.143 5.714t13.143-5.714l224.571-224.571 224.571 224.571q5.714 5.714 13.143 5.714t13.143-5.714l28.571-28.571q5.714-5.714 5.714-13.143z" />
<glyph unicode="&#xf1c1;" glyph-name="file-pdf-o" horiz-adv-x="878" d="M838.857 733.714q16-16 27.429-43.429t11.429-50.286v-658.286q0-22.857-16-38.857t-38.857-16h-768q-22.857 0-38.857 16t-16 38.857v914.286q0 22.857 16 38.857t38.857 16h512q22.857 0 50.286-11.429t43.429-27.429zM585.143 873.143v-214.857h214.857q-5.714 16.571-12.571 23.429l-178.857 178.857q-6.857 6.857-23.429 12.571zM804.571 0v585.143h-237.714q-22.857 0-38.857 16t-16 38.857v237.714h-438.857v-877.714h731.429zM510.857 338.857q18.857-14.857 48-32 33.714 4 66.857 4 84 0 101.143-28 9.143-12.571 1.143-29.714 0-0.571-0.571-1.143l-1.143-1.143v-0.571q-3.429-21.714-40.571-21.714-27.429 0-65.714 11.429t-74.286 30.286q-126.286-13.714-224-47.429-87.429-149.714-138.286-149.714-8.571 0-16 4l-13.714 6.857q-0.571 0.571-3.429 2.857-5.714 5.714-3.429 20.571 5.143 22.857 32 52.286t75.429 55.143q8 5.143 13.143-3.429 1.143-1.143 1.143-2.286 29.714 48.571 61.143 112.571 38.857 77.714 59.429 149.714-13.714 46.857-17.429 91.143t3.714 72.857q6.286 22.857 24 22.857h12.571q13.143 0 20-8.571 10.286-12 5.143-38.857-1.143-3.429-2.286-4.571 0.571-1.714 0.571-4.571v-17.143q-1.143-70.286-8-109.714 31.429-93.714 83.429-136zM181.714 104q29.714 13.714 78.286 90.286-29.143-22.857-50-48t-28.286-42.286zM409.143 629.714q-8.571-24-1.143-75.429 0.571 4 4 25.143 0 1.714 4 24.571 0.571 2.286 2.286 4.571-0.571 0.571-0.571 1.143t-0.286 0.857-0.286 0.857q-0.571 12.571-7.429 20.571 0-0.571-0.571-1.143v-1.143zM338.286 252q77.143 30.857 162.286 46.286-1.143 0.571-7.429 5.429t-9.143 7.714q-43.429 38.286-72.571 100.571-15.429-49.143-47.429-112.571-17.143-32-25.714-47.429zM707.429 261.143q-13.714 13.714-80 13.714 43.429-16 70.857-16 8 0 10.286 0.571 0 0.571-1.143 1.714z" />
<glyph unicode="&#xf1c2;" glyph-name="file-word-o" horiz-adv-x="878" d="M838.857 733.714q16-16 27.429-43.429t11.429-50.286v-658.286q0-22.857-16-38.857t-38.857-16h-768q-22.857 0-38.857 16t-16 38.857v914.286q0 22.857 16 38.857t38.857 16h512q22.857 0 50.286-11.429t43.429-27.429zM585.143 873.143v-214.857h214.857q-5.714 16.571-12.571 23.429l-178.857 178.857q-6.857 6.857-23.429 12.571zM804.571 0v585.143h-237.714q-22.857 0-38.857 16t-16 38.857v237.714h-438.857v-877.714h731.429zM133.143 512v-61.143h40l93.714-377.714h90.857l73.143 277.143q4 11.429 5.714 26.286 1.143 9.143 1.143 13.714h2.286l1.714-13.714q0.571-1.714 2-11.429t3.143-14.857l73.143-277.143h90.857l93.714 377.714h40v61.143h-171.429v-61.143h51.429l-56.571-250.286q-2.857-11.429-4-26.286l-1.143-12h-2.286l-1.714 12q-0.571 2.857-2.286 12t-2.857 14.286l-82.286 311.429h-65.143l-82.286-311.429q-1.143-5.143-2.571-14t-2-12.286l-2.286-12h-2.286l-1.143 12q-1.143 14.857-4 26.286l-56.571 250.286h51.429v61.143h-171.429z" />
<glyph unicode="&#xf1c3;" glyph-name="file-excel-o" horiz-adv-x="878" d="M838.857 733.714q16-16 27.429-43.429t11.429-50.286v-658.286q0-22.857-16-38.857t-38.857-16h-768q-22.857 0-38.857 16t-16 38.857v914.286q0 22.857 16 38.857t38.857 16h512q22.857 0 50.286-11.429t43.429-27.429zM585.143 873.143v-214.857h214.857q-5.714 16.571-12.571 23.429l-178.857 178.857q-6.857 6.857-23.429 12.571zM804.571 0v585.143h-237.714q-22.857 0-38.857 16t-16 38.857v237.714h-438.857v-877.714h731.429zM245.143 133.714v-60.571h160.571v60.571h-42.857l58.857 92q2.857 4 5.714 9.429t4.286 7.714 2 2.286h1.143q0.571-2.286 2.857-5.714 1.143-2.286 2.571-4.286t3.429-4.571 3.714-4.857l61.143-92h-43.429v-60.571h166.286v60.571h-38.857l-109.714 156 111.429 161.143h38.286v61.143h-159.429v-61.143h42.286l-58.857-90.857q-2.286-4-5.714-9.429t-5.143-7.714l-1.143-1.714h-1.143q-0.571 2.286-2.857 5.714-3.429 6.286-9.714 13.143l-60.571 90.857h43.429v61.143h-165.714v-61.143h38.857l108-155.429-110.857-161.714h-38.857z" />
<glyph unicode="&#xf1c6;" glyph-name="file-archive-o, file-zip-o" horiz-adv-x="878" d="M365.714 731.428v73.143h-73.143v-73.143h73.143zM438.857 658.286v73.143h-73.143v-73.143h73.143zM365.714 585.143v73.143h-73.143v-73.143h73.143zM438.857 512v73.143h-73.143v-73.143h73.143zM838.857 733.714q16-16 27.429-43.429t11.429-50.286v-658.286q0-22.857-16-38.857t-38.857-16h-768q-22.857 0-38.857 16t-16 38.857v914.286q0 22.857 16 38.857t38.857 16h512q22.857 0 50.286-11.429t43.429-27.429zM585.143 873.143v-214.857h214.857q-5.714 16.571-12.571 23.429l-178.857 178.857q-6.857 6.857-23.429 12.571zM804.571 0v585.143h-237.714q-22.857 0-38.857 16t-16 38.857v237.714h-73.143v-73.143h-73.143v73.143h-292.571v-877.714h731.429zM446.286 412l61.143-199.429q4.571-15.429 4.571-29.714 0-47.429-41.429-78.571t-104.857-31.143-104.857 31.143-41.429 78.571q0 14.286 4.571 29.714 12 36 68.571 226.286v73.143h73.143v-73.143h45.143q12.571 0 22.286-7.429t13.143-19.429zM365.714 146.286q30.286 0 51.714 10.857t21.429 25.714-21.429 25.714-51.714 10.857-51.714-10.857-21.429-25.714 21.429-25.714 51.714-10.857z" />
</font>
</defs>
</svg>
